<svg width="441" height="247" viewBox="0 0 441 247" fill="none" xmlns="http://www.w3.org/2000/svg">
<path d="M13.74 42.72L0 0.719998H10.08L22.02 37.92H16.98L29.46 0.719998H38.46L50.46 37.92H45.6L57.84 0.719998H67.14L53.4 42.72H42.96L32.34 10.08H35.1L24.18 42.72H13.74Z" fill="white"/>
<path d="M81.5062 17.64H101.726V25.2H81.5062V17.64ZM82.2262 34.92H105.086V42.72H72.5663V0.719998H104.306V8.52H82.2262V34.92Z" fill="white"/>
<path d="M112.82 42.72V0.719998H122.54V34.8H143.6V42.72H112.82Z" fill="white"/>
<path d="M168.428 43.44C165.188 43.44 162.168 42.92 159.368 41.88C156.608 40.8 154.208 39.28 152.168 37.32C150.128 35.36 148.528 33.06 147.368 30.42C146.248 27.78 145.688 24.88 145.688 21.72C145.688 18.56 146.248 15.66 147.368 13.02C148.528 10.38 150.128 8.08 152.168 6.12C154.248 4.16 156.668 2.66 159.428 1.62C162.188 0.539999 165.208 0 168.488 0C172.128 0 175.408 0.64 178.328 1.92C181.288 3.16 183.768 5 185.768 7.44L179.528 13.2C178.088 11.56 176.488 10.34 174.728 9.54C172.968 8.7 171.048 8.28 168.968 8.28C167.008 8.28 165.208 8.6 163.568 9.24C161.928 9.88 160.508 10.8 159.308 12C158.108 13.2 157.168 14.62 156.488 16.26C155.848 17.9 155.528 19.72 155.528 21.72C155.528 23.72 155.848 25.54 156.488 27.18C157.168 28.82 158.108 30.24 159.308 31.44C160.508 32.64 161.928 33.56 163.568 34.2C165.208 34.84 167.008 35.16 168.968 35.16C171.048 35.16 172.968 34.76 174.728 33.96C176.488 33.12 178.088 31.86 179.528 30.18L185.768 35.94C183.768 38.38 181.288 40.24 178.328 41.52C175.408 42.8 172.108 43.44 168.428 43.44Z" fill="white"/>
<path d="M211.853 43.44C208.533 43.44 205.453 42.9 202.613 41.82C199.813 40.74 197.373 39.22 195.293 37.26C193.253 35.3 191.653 33 190.493 30.36C189.373 27.72 188.813 24.84 188.813 21.72C188.813 18.6 189.373 15.72 190.493 13.08C191.653 10.44 193.273 8.14 195.353 6.18C197.433 4.22 199.873 2.7 202.673 1.62C205.473 0.539999 208.513 0 211.793 0C215.113 0 218.153 0.539999 220.913 1.62C223.713 2.7 226.133 4.22 228.173 6.18C230.253 8.14 231.873 10.44 233.033 13.08C234.193 15.68 234.773 18.56 234.773 21.72C234.773 24.84 234.193 27.74 233.033 30.42C231.873 33.06 230.253 35.36 228.173 37.32C226.133 39.24 223.713 40.74 220.913 41.82C218.153 42.9 215.133 43.44 211.853 43.44ZM211.793 35.16C213.673 35.16 215.393 34.84 216.953 34.2C218.553 33.56 219.953 32.64 221.153 31.44C222.353 30.24 223.273 28.82 223.913 27.18C224.593 25.54 224.933 23.72 224.933 21.72C224.933 19.72 224.593 17.9 223.913 16.26C223.273 14.62 222.353 13.2 221.153 12C219.993 10.8 218.613 9.88 217.013 9.24C215.413 8.6 213.673 8.28 211.793 8.28C209.913 8.28 208.173 8.6 206.573 9.24C205.013 9.88 203.633 10.8 202.433 12C201.233 13.2 200.293 14.62 199.613 16.26C198.973 17.9 198.653 19.72 198.653 21.72C198.653 23.68 198.973 25.5 199.613 27.18C200.293 28.82 201.213 30.24 202.373 31.44C203.573 32.64 204.973 33.56 206.573 34.2C208.173 34.84 209.913 35.16 211.793 35.16Z" fill="white"/>
<path d="M242.078 42.72V0.719998H250.118L267.998 30.36H263.738L281.318 0.719998H289.298L289.418 42.72H280.298L280.238 14.7H281.918L267.878 38.28H263.498L249.158 14.7H251.198V42.72H242.078Z" fill="white"/>
<path d="M308.323 17.64H328.543V25.2H308.323V17.64ZM309.043 34.92H331.903V42.72H299.383V0.719998H331.123V8.52H309.043V34.92Z" fill="white"/>
<path d="M365.329 42.72V8.64H351.889V0.719998H388.489V8.64H375.049V42.72H365.329Z" fill="white"/>
<path d="M413.533 43.44C410.213 43.44 407.133 42.9 404.293 41.82C401.493 40.74 399.053 39.22 396.973 37.26C394.933 35.3 393.333 33 392.173 30.36C391.053 27.72 390.493 24.84 390.493 21.72C390.493 18.6 391.053 15.72 392.173 13.08C393.333 10.44 394.953 8.14 397.033 6.18C399.113 4.22 401.553 2.7 404.353 1.62C407.153 0.539999 410.193 0 413.473 0C416.793 0 419.833 0.539999 422.593 1.62C425.393 2.7 427.813 4.22 429.853 6.18C431.933 8.14 433.553 10.44 434.713 13.08C435.873 15.68 436.453 18.56 436.453 21.72C436.453 24.84 435.873 27.74 434.713 30.42C433.553 33.06 431.933 35.36 429.853 37.32C427.813 39.24 425.393 40.74 422.593 41.82C419.833 42.9 416.813 43.44 413.533 43.44ZM413.473 35.16C415.353 35.16 417.073 34.84 418.633 34.2C420.233 33.56 421.633 32.64 422.833 31.44C424.033 30.24 424.953 28.82 425.593 27.18C426.273 25.54 426.613 23.72 426.613 21.72C426.613 19.72 426.273 17.9 425.593 16.26C424.953 14.62 424.033 13.2 422.833 12C421.673 10.8 420.293 9.88 418.693 9.24C417.093 8.6 415.353 8.28 413.473 8.28C411.593 8.28 409.853 8.6 408.253 9.24C406.693 9.88 405.313 10.8 404.113 12C402.913 13.2 401.973 14.62 401.293 16.26C400.653 17.9 400.333 19.72 400.333 21.72C400.333 23.68 400.653 25.5 401.293 27.18C401.973 28.82 402.893 30.24 404.053 31.44C405.253 32.64 406.653 33.56 408.253 34.2C409.853 34.84 411.593 35.16 413.473 35.16Z" fill="white"/>
<path d="M23.9308 103.82H56.4308V118.62H23.9308V103.82ZM25.3308 131.42H61.9308V146.72H5.73078V76.72H60.6308V92.02H25.3308V131.42Z" fill="white"/>
<path d="M72.9183 146.72V76.72H89.2183L127.818 123.32H120.118V76.72H139.518V146.72H123.218L84.6183 100.12H92.3183V146.72H72.9183Z" fill="white"/>
<path d="M188.385 148.12C182.851 148.12 177.718 147.253 172.985 145.52C168.318 143.72 164.251 141.187 160.785 137.92C157.385 134.653 154.718 130.82 152.785 126.42C150.851 121.953 149.885 117.053 149.885 111.72C149.885 106.387 150.851 101.52 152.785 97.12C154.718 92.6533 157.385 88.7867 160.785 85.52C164.251 82.2533 168.318 79.7533 172.985 78.02C177.718 76.22 182.851 75.32 188.385 75.32C194.851 75.32 200.618 76.4533 205.685 78.72C210.818 80.9867 215.085 84.2533 218.485 88.52L205.885 99.92C203.618 97.2533 201.118 95.22 198.385 93.82C195.718 92.42 192.718 91.72 189.385 91.72C186.518 91.72 183.885 92.1867 181.485 93.12C179.085 94.0533 177.018 95.42 175.285 97.22C173.618 98.9533 172.285 101.053 171.285 103.52C170.351 105.987 169.885 108.72 169.885 111.72C169.885 114.72 170.351 117.453 171.285 119.92C172.285 122.387 173.618 124.52 175.285 126.32C177.018 128.053 179.085 129.387 181.485 130.32C183.885 131.253 186.518 131.72 189.385 131.72C192.718 131.72 195.718 131.02 198.385 129.62C201.118 128.22 203.618 126.187 205.885 123.52L218.485 134.92C215.085 139.12 210.818 142.387 205.685 144.72C200.618 146.987 194.851 148.12 188.385 148.12Z" fill="white"/>
<path d="M261.148 148.12C255.548 148.12 250.381 147.22 245.648 145.42C240.915 143.62 236.781 141.087 233.248 137.82C229.781 134.487 227.081 130.62 225.148 126.22C223.215 121.82 222.248 116.987 222.248 111.72C222.248 106.453 223.215 101.62 225.148 97.22C227.081 92.82 229.781 88.9867 233.248 85.72C236.781 82.3867 240.915 79.82 245.648 78.02C250.381 76.22 255.548 75.32 261.148 75.32C266.815 75.32 271.981 76.22 276.648 78.02C281.381 79.82 285.481 82.3867 288.948 85.72C292.415 88.9867 295.115 92.82 297.048 97.22C299.048 101.62 300.048 106.453 300.048 111.72C300.048 116.987 299.048 121.853 297.048 126.32C295.115 130.72 292.415 134.553 288.948 137.82C285.481 141.087 281.381 143.62 276.648 145.42C271.981 147.22 266.815 148.12 261.148 148.12ZM261.148 131.72C263.815 131.72 266.281 131.253 268.548 130.32C270.881 129.387 272.881 128.053 274.548 126.32C276.281 124.52 277.615 122.387 278.548 119.92C279.548 117.453 280.048 114.72 280.048 111.72C280.048 108.653 279.548 105.92 278.548 103.52C277.615 101.053 276.281 98.9533 274.548 97.22C272.881 95.42 270.881 94.0533 268.548 93.12C266.281 92.1867 263.815 91.72 261.148 91.72C258.481 91.72 255.981 92.1867 253.648 93.12C251.381 94.0533 249.381 95.42 247.648 97.22C245.981 98.9533 244.648 101.053 243.648 103.52C242.715 105.92 242.248 108.653 242.248 111.72C242.248 114.72 242.715 117.453 243.648 119.92C244.648 122.387 245.981 124.52 247.648 126.32C249.381 128.053 251.381 129.387 253.648 130.32C255.981 131.253 258.481 131.72 261.148 131.72Z" fill="white"/>
<path d="M310.418 146.72V76.72H342.418C348.818 76.72 354.318 77.7533 358.918 79.82C363.585 81.8867 367.185 84.8867 369.718 88.82C372.252 92.6867 373.518 97.2867 373.518 102.62C373.518 107.887 372.252 112.453 369.718 116.32C367.185 120.12 363.585 123.053 358.918 125.12C354.318 127.12 348.818 128.12 342.418 128.12H321.418L330.218 119.82V146.72H310.418ZM353.718 146.72L336.318 121.22H357.418L374.918 146.72H353.718ZM330.218 121.92L321.418 112.82H341.218C345.352 112.82 348.418 111.92 350.418 110.12C352.485 108.32 353.518 105.82 353.518 102.62C353.518 99.3533 352.485 96.82 350.418 95.02C348.418 93.22 345.352 92.32 341.218 92.32H321.418L330.218 83.22V121.92Z" fill="white"/>
<path d="M402.642 103.82H435.142V118.62H402.642V103.82ZM404.042 131.42H440.642V146.72H384.442V76.72H439.342V92.02H404.042V131.42Z" fill="white"/>
<path d="M112.712 246.72L143.612 176.72H163.112L194.112 246.72H173.512L149.312 186.42H157.112L132.912 246.72H112.712ZM129.612 233.12L134.712 218.52H168.912L174.012 233.12H129.612Z" fill="white"/>
<path d="M199.725 246.72V176.72H231.725C238.125 176.72 243.625 177.753 248.225 179.82C252.892 181.887 256.492 184.887 259.025 188.82C261.558 192.687 262.825 197.287 262.825 202.62C262.825 207.887 261.558 212.453 259.025 216.32C256.492 220.12 252.892 223.053 248.225 225.12C243.625 227.12 238.125 228.12 231.725 228.12H210.725L219.525 219.82V246.72H199.725ZM243.025 246.72L225.625 221.22H246.725L264.225 246.72H243.025ZM219.525 221.92L210.725 212.82H230.525C234.658 212.82 237.725 211.92 239.725 210.12C241.792 208.32 242.825 205.82 242.825 202.62C242.825 199.353 241.792 196.82 239.725 195.02C237.725 193.22 234.658 192.32 230.525 192.32H210.725L219.525 183.22V221.92Z" fill="white"/>
<path d="M287.672 246.72V192.42H266.172V176.72H328.872V192.42H307.472V246.72H287.672Z" fill="white"/>
</svg>
