<svg width="16" height="16" viewBox="0 0 16 16" fill="none" xmlns="http://www.w3.org/2000/svg">
<g clip-path="url(#clip0_165_19581)">
<g clip-path="url(#clip1_165_19581)">
<g clip-path="url(#clip2_165_19581)">
<path d="M15.59 7.79498C15.59 3.49026 12.0997 0 7.79498 0C3.49026 0 0 3.49026 0 7.79498C0 11.6854 2.85009 14.9103 6.57712 15.4958V10.0487H4.59741V7.79498H6.57712V6.07727C6.57712 4.12386 7.74127 3.04412 9.52149 3.04412C10.3743 3.04412 11.2666 3.19648 11.2666 3.19648V5.11481H10.2833C9.31541 5.11481 9.01285 5.71552 9.01285 6.33268V7.79498H11.1745L10.8292 10.0487H9.01285V15.4958C12.7399 14.9114 15.59 11.6865 15.59 7.79498Z" fill="white"/>
</g>
</g>
</g>
<defs>
<clipPath id="clip0_165_19581">
<rect width="16" height="16" fill="white"/>
</clipPath>
<clipPath id="clip1_165_19581">
<rect width="15.59" height="15.59" fill="white"/>
</clipPath>
<clipPath id="clip2_165_19581">
<rect width="15.59" height="15.4987" fill="white"/>
</clipPath>
</defs>
</svg>
